# xmcd
#
# Track frame offsets: 
#        150
#        19046
#        39668
#        57191
#        73559
#        90275
#        107466
#        129851
#        145020
#        158931
#        175581
#
# Disc length: 2572 seconds
#
# Revision: 1
# Processed by: cddbd v1.5.2PL0 Copyright (c) Steve Scherf et al.
# Submitted via: ExactAudioCopy v0.99pb4
#
DISCID=7e0a0a0b
DTITLE=Mark Olson - Many Colored Kite
DYEAR=2010
DGENRE=Americana
TTITLE0=Little Bird Of Freedom
TTITLE1=Morning Dove
TTITLE2=Many Colored Kite
TTITLE3=Bluebell Song
TTITLE4=Beehive
TTITLE5=No Time To Live Without Her
TTITLE6=Your Life Beside Us
TTITLE7=Scholastica
TTITLE8=Kingsnake
TTITLE9=Wind and Rain
TTITLE10=More Hours
EXTD=
EXTT0=
EXTT1=
EXTT2=
EXTT3=
EXTT4=
EXTT5=
EXTT6=
EXTT7=
EXTT8=
EXTT9=
EXTT10=
PLAYORDER=
